<?xml version="1.0" encoding="utf-8"?><svg viewBox="0 0 26 24" xmlns="http://www.w3.org/2000/svg" xmlns:xlink="http://www.w3.org/1999/xlink"><style>:root>svg{display:none}:root>svg:target{display:block}</style><svg viewBox="0 0 26 22" id="eye-icon" xmlns="http://www.w3.org/2000/svg"><path d="M13.074 6.31c-.64 0-1.252.127-1.834.38a4.835 4.835 0 00-1.502 1.008 4.819 4.819 0 00-1.01 1.497 4.599 4.599 0 000 3.67c.255.59.591 1.094 1.01 1.511.418.418.919.75 1.502.995a4.677 4.677 0 001.834.368 4.687 4.687 0 004.1-2.333c.418-.72.627-1.514.627-2.381 0-1.294-.46-2.403-1.379-3.327-.919-.925-2.035-1.388-3.348-1.388zm0 7.858a3.084 3.084 0 01-1.576-.43 3.223 3.223 0 01-1.17-1.154A3.042 3.042 0 019.899 11a3.157 3.157 0 01.923-2.222 3.166 3.166 0 012.228-.92c.87 0 1.613.306 2.229.92.615.614.923 1.354.923 2.222 0 .868-.304 1.612-.911 2.234a2.98 2.98 0 01-2.216.934zm12.532-3.34a.201.201 0 00-.012-.061.2.2 0 01-.013-.062c0-.016-.004-.028-.012-.036l-.012-.013v-.024l-.025-.05c-1.116-2.57-2.807-4.587-5.072-6.052-2.265-1.465-4.735-2.197-7.41-2.197-1.757 0-3.448.319-5.073.957-1.625.639-3.098 1.584-4.42 2.836a13.609 13.609 0 00-3.114 4.457v.061l-.024.037v.074l-.025.049a1.473 1.473 0 00-.025.22c0 .033.004.066.013.099a.403.403 0 01.012.098c0 .016.008.041.025.074v.049l.012.037.012.012v.074c1.133 2.57 2.836 4.579 5.11 6.027A13.59 13.59 0 0013 19.668a13.81 13.81 0 005.06-.946c1.617-.63 3.081-1.567 4.395-2.811a13.256 13.256 0 003.077-4.444c.017 0 .025-.009.025-.025v-.037l.012-.024.012-.013v-.073l.025-.05c.016-.098.025-.171.025-.22a.403.403 0 00-.013-.099.403.403 0 01-.012-.098zM13 18.096c-2.33 0-4.49-.61-6.475-1.83-1.986-1.219-3.497-2.966-4.53-5.241 1.033-2.276 2.552-4.031 4.554-5.267 2.003-1.236 4.17-1.854 6.5-1.854 1.51 0 2.959.262 4.346.786s2.663 1.33 3.829 2.418c1.165 1.089 2.092 2.394 2.782 3.917-1.034 2.275-2.544 4.022-4.53 5.242A12.147 12.147 0 0113 18.096z"/></svg><svg viewBox="0 0 24 24" id="facebook" xmlns="http://www.w3.org/2000/svg"><path d="M13.397 20.997V12.8h2.765l.411-3.21h-3.176V7.549c0-.926.258-1.56 1.587-1.56h1.684V3.127c-.82-.088-1.643-.13-2.467-.127-2.444 0-4.122 1.492-4.122 4.23v2.356H7.332v3.209h2.753v8.202h3.312z"/></svg><svg viewBox="0 0 24 24" id="instagram" xmlns="http://www.w3.org/2000/svg"><path d="M16.5 0h-9A7.5 7.5 0 000 7.5v9A7.5 7.5 0 007.5 24h9a7.5 7.5 0 007.5-7.5v-9A7.5 7.5 0 0016.5 0zm5.25 16.5a5.256 5.256 0 01-5.25 5.25h-9a5.256 5.256 0 01-5.25-5.25v-9A5.256 5.256 0 017.5 2.25h9a5.256 5.256 0 015.25 5.25v9z"/><path d="M12 6a6 6 0 100 12 6 6 0 000-12zm0 9.75A3.755 3.755 0 018.25 12 3.754 3.754 0 0112 8.25 3.754 3.754 0 0115.75 12 3.755 3.755 0 0112 15.75zM18.448 6.35a.8.8 0 100-1.599.8.8 0 000 1.599z"/></svg><svg viewBox="0 0 8 7" id="salon-arrow" xmlns="http://www.w3.org/2000/svg"><path d="M4 7L0 0h8L4 7z"/></svg><svg viewBox="0 0 24 24" id="vk" xmlns="http://www.w3.org/2000/svg"><g clip-path="url(#eclip0_1_229)"><path fill-rule="evenodd" clip-rule="evenodd" d="M21.362 14.758s1.94 1.916 2.42 2.803c.01.012.017.027.022.042.196.327.244.584.148.774-.162.313-.71.47-.896.483h-3.43c-.239 0-.736-.062-1.34-.48-.462-.322-.922-.854-1.367-1.374-.665-.771-1.24-1.44-1.822-1.44a.659.659 0 00-.216.035c-.44.14-1 .767-1 2.438 0 .524-.412.821-.701.821h-1.571c-.535 0-3.322-.187-5.793-2.792C2.79 12.878.07 6.48.043 6.424c-.169-.414.186-.64.57-.64h3.463c.465 0 .616.28.722.533.122.289.576 1.446 1.32 2.745 1.204 2.115 1.945 2.975 2.536 2.975.112 0 .22-.029.317-.084.773-.425.629-3.185.593-3.753 0-.11-.001-1.233-.397-1.775-.283-.39-.766-.54-1.057-.595.078-.113.243-.286.456-.388.529-.264 1.485-.302 2.434-.302h.527c1.03.014 1.296.08 1.67.175.754.18.769.668.703 2.331-.02.476-.04 1.01-.04 1.64 0 .135-.006.285-.006.438-.023.853-.053 1.814.55 2.209a.491.491 0 00.26.074c.209 0 .834 0 2.53-2.91.744-1.285 1.32-2.8 1.36-2.915.033-.063.134-.242.256-.314a.575.575 0 01.283-.067h4.074c.444 0 .745.067.804.235.099.272-.019 1.104-1.879 3.62-.313.418-.588.78-.83 1.097-1.685 2.213-1.685 2.325.1 4.005z"/></g><defs><clipPath id="eclip0_1_229"><path d="M0 0h24v24H0z"/></clipPath></defs></svg><svg viewBox="0 0 24 24" id="youtube" xmlns="http://www.w3.org/2000/svg"><path d="M22.058 6.945a2.625 2.625 0 00-1.853-1.852C18.57 4.65 12 4.65 12 4.65s-6.57 0-8.205.443a2.625 2.625 0 00-1.853 1.852A27.098 27.098 0 001.5 12c-.011 1.695.137 3.388.442 5.055a2.625 2.625 0 001.853 1.852C5.43 19.35 12 19.35 12 19.35s6.57 0 8.205-.443a2.625 2.625 0 001.853-1.852A27.1 27.1 0 0022.5 12a27.1 27.1 0 00-.442-5.055zM9.9 15.15v-6.3L15.352 12 9.9 15.15z"/></svg></svg>